<?xml version="1.0" encoding="utf-8" standalone="no"?>
<!DOCTYPE svg PUBLIC "-//W3C//DTD SVG 1.1//EN"
  "http://www.w3.org/Graphics/SVG/1.1/DTD/svg11.dtd">
<svg xmlns:xlink="http://www.w3.org/1999/xlink" width="500.466687pt" height="205.214688pt" viewBox="0 0 500.466687 205.214688" xmlns="http://www.w3.org/2000/svg" version="1.1">
 <metadata>
  <rdf:RDF xmlns:dc="http://purl.org/dc/elements/1.1/" xmlns:cc="http://creativecommons.org/ns#" xmlns:rdf="http://www.w3.org/1999/02/22-rdf-syntax-ns#">
   <cc:Work>
    <dc:type rdf:resource="http://purl.org/dc/dcmitype/StillImage"/>
    <dc:date>2026-09-28T11:21:07.882793</dc:date>
    <dc:format>image/svg+xml</dc:format>
    <dc:creator>
     <cc:Agent>
      <dc:title>Matplotlib v3.10.9, https://matplotlib.org/</dc:title>
     </cc:Agent>
    </dc:creator>
   </cc:Work>
  </rdf:RDF>
 </metadata>
 <defs>
  <style type="text/css">*{stroke-linejoin: round; stroke-linecap: butt}</style>
 </defs>
 <g id="figure_1">
  <g id="patch_1">
   <path d="M 0 205.214688 
L 500.466687 205.214688 
L 500.466687 0 
L 0 0 
z
" style="fill: #ffffff"/>
  </g>
  <g id="axes_1">
   <g id="patch_2">
    <path d="M 37.074688 184.24 
L 235.419035 184.24 
L 235.419035 48.304 
L 37.074688 48.304 
z
" style="fill: #ffffff"/>
   </g>
   <g id="patch_3">
    <path d="M 46.09034 252.208 
L 54.815164 252.208 
L 54.815164 96.959078 
L 46.09034 96.959078 
z
" clip-path="url(#p3a6199fd8d)" style="fill: #557a95"/>
   </g>
   <g id="patch_4">
    <path d="M 94.561588 252.208 
L 103.286413 252.208 
L 103.286413 62.020196 
L 94.561588 62.020196 
z
" clip-path="url(#p3a6199fd8d)" style="fill: #557a95"/>
   </g>
   <g id="patch_5">
    <path d="M 143.032836 252.208 
L 151.757661 252.208 
L 151.757661 126.948336 
L 143.032836 126.948336 
z
" clip-path="url(#p3a6199fd8d)" style="fill: #557a95"/>
   </g>
   <g id="patch_6">
    <path d="M 191.504084 252.208 
L 200.228909 252.208 
L 200.228909 77.841987 
L 191.504084 77.841987 
z
" clip-path="url(#p3a6199fd8d)" style="fill: #557a95"/>
   </g>
   <g id="patch_7">
    <path d="M 54.815164 252.208 
L 63.539989 252.208 
L 63.539989 98.560604 
L 54.815164 98.560604 
z
" clip-path="url(#p3a6199fd8d)" style="fill: #6e8b74"/>
   </g>
   <g id="patch_8">
    <path d="M 103.286413 252.208 
L 112.011237 252.208 
L 112.011237 63.827638 
L 103.286413 63.827638 
z
" clip-path="url(#p3a6199fd8d)" style="fill: #6e8b74"/>
   </g>
   <g id="patch_9">
    <path d="M 151.757661 252.208 
L 160.482486 252.208 
L 160.482486 140.195911 
L 151.757661 140.195911 
z
" clip-path="url(#p3a6199fd8d)" style="fill: #6e8b74"/>
   </g>
   <g id="patch_10">
    <path d="M 200.228909 252.208 
L 208.953734 252.208 
L 208.953734 77.841987 
L 200.228909 77.841987 
z
" clip-path="url(#p3a6199fd8d)" style="fill: #6e8b74"/>
   </g>
   <g id="patch_11">
    <path d="M 63.539989 252.208 
L 72.264814 252.208 
L 72.264814 150.607648 
L 63.539989 150.607648 
z
" clip-path="url(#p3a6199fd8d)" style="fill: #6b7280"/>
   </g>
   <g id="patch_12">
    <path d="M 112.011237 252.208 
L 120.736062 252.208 
L 120.736062 75.167839 
L 112.011237 75.167839 
z
" clip-path="url(#p3a6199fd8d)" style="fill: #6b7280"/>
   </g>
   <g id="patch_13">
    <path d="M 160.482486 252.208 
L 169.20731 252.208 
L 169.20731 162.926735 
L 160.482486 162.926735 
z
" clip-path="url(#p3a6199fd8d)" style="fill: #6b7280"/>
   </g>
   <g id="patch_14">
    <path d="M 208.953734 252.208 
L 217.678558 252.208 
L 217.678558 104.849478 
L 208.953734 104.849478 
z
" clip-path="url(#p3a6199fd8d)" style="fill: #6b7280"/>
   </g>
   <g id="patch_15">
    <path d="M 72.264814 252.208 
L 80.989638 252.208 
L 80.989638 117.679834 
L 72.264814 117.679834 
z
" clip-path="url(#p3a6199fd8d)" style="fill: #c17c54"/>
   </g>
   <g id="patch_16">
    <path d="M 120.736062 252.208 
L 129.460887 252.208 
L 129.460887 75.167839 
L 120.736062 75.167839 
z
" clip-path="url(#p3a6199fd8d)" style="fill: #c17c54"/>
   </g>
   <g id="patch_17">
    <path d="M 169.20731 252.208 
L 177.932135 252.208 
L 177.932135 156.989099 
L 169.20731 156.989099 
z
" clip-path="url(#p3a6199fd8d)" style="fill: #c17c54"/>
   </g>
   <g id="patch_18">
    <path d="M 217.678558 252.208 
L 226.403383 252.208 
L 226.403383 77.351323 
L 217.678558 77.351323 
z
" clip-path="url(#p3a6199fd8d)" style="fill: #c17c54"/>
   </g>
   <g id="matplotlib.axis_1">
    <g id="xtick_1">
     <g id="line2d_1">
      <defs>
       <path id="m146113379a" d="M 0 0 
L 0 3.5 
" style="stroke: #000000; stroke-width: 0.8"/>
      </defs>
      <g>
       <use xlink:href="#m146113379a" x="63.539989" y="184.24" style="stroke: #000000; stroke-width: 0.8"/>
      </g>
     </g>
     <g id="text_1">
      <text style="font-size: 7px; font-family: 'DejaVu Sans'; text-anchor: middle" x="63.539989" y="196.558906" transform="rotate(-0 63.539989 196.558906)">Flights</text>
     </g>
    </g>
    <g id="xtick_2">
     <g id="line2d_2">
      <g>
       <use xlink:href="#m146113379a" x="112.011237" y="184.24" style="stroke: #000000; stroke-width: 0.8"/>
      </g>
     </g>
     <g id="text_2">
      <text style="font-size: 7px; font-family: 'DejaVu Sans'; text-anchor: middle" x="112.011237" y="196.558906" transform="rotate(-0 112.011237 196.558906)">Assets</text>
     </g>
    </g>
    <g id="xtick_3">
     <g id="line2d_3">
      <g>
       <use xlink:href="#m146113379a" x="160.482486" y="184.24" style="stroke: #000000; stroke-width: 0.8"/>
      </g>
     </g>
     <g id="text_3">
      <text style="font-size: 7px; font-family: 'DejaVu Sans'; text-anchor: middle" x="160.482486" y="196.558906" transform="rotate(-0 160.482486 196.558906)">Hospital</text>
     </g>
    </g>
    <g id="xtick_4">
     <g id="line2d_4">
      <g>
       <use xlink:href="#m146113379a" x="208.953734" y="184.24" style="stroke: #000000; stroke-width: 0.8"/>
      </g>
     </g>
     <g id="text_4">
      <text style="font-size: 7px; font-family: 'DejaVu Sans'; text-anchor: middle" x="208.953734" y="196.558906" transform="rotate(-0 208.953734 196.558906)">Beers</text>
     </g>
    </g>
   </g>
   <g id="matplotlib.axis_2">
    <g id="ytick_1">
     <g id="line2d_5">
      <path d="M 37.074688 184.24 
L 235.419035 184.24 
" clip-path="url(#p3a6199fd8d)" style="fill: none; stroke: #d6d9dc; stroke-width: 0.6; stroke-linecap: square"/>
     </g>
     <g id="line2d_6">
      <defs>
       <path id="m6e5ea748ec" d="M 0 0 
L -3.5 0 
" style="stroke: #000000; stroke-width: 0.8"/>
      </defs>
      <g>
       <use xlink:href="#m6e5ea748ec" x="37.074688" y="184.24" style="stroke: #000000; stroke-width: 0.8"/>
      </g>
     </g>
     <g id="text_5">
      <text style="font-size: 7px; font-family: 'DejaVu Sans'; text-anchor: end" x="30.074688" y="186.899453" transform="rotate(-0 30.074688 186.899453)">0.3</text>
     </g>
    </g>
    <g id="ytick_2">
     <g id="line2d_7">
      <path d="M 37.074688 161.584 
L 235.419035 161.584 
" clip-path="url(#p3a6199fd8d)" style="fill: none; stroke: #d6d9dc; stroke-width: 0.6; stroke-linecap: square"/>
     </g>
     <g id="line2d_8">
      <g>
       <use xlink:href="#m6e5ea748ec" x="37.074688" y="161.584" style="stroke: #000000; stroke-width: 0.8"/>
      </g>
     </g>
     <g id="text_6">
      <text style="font-size: 7px; font-family: 'DejaVu Sans'; text-anchor: end" x="30.074688" y="164.243453" transform="rotate(-0 30.074688 164.243453)">0.4</text>
     </g>
    </g>
    <g id="ytick_3">
     <g id="line2d_9">
      <path d="M 37.074688 138.928 
L 235.419035 138.928 
" clip-path="url(#p3a6199fd8d)" style="fill: none; stroke: #d6d9dc; stroke-width: 0.6; stroke-linecap: square"/>
     </g>
     <g id="line2d_10">
      <g>
       <use xlink:href="#m6e5ea748ec" x="37.074688" y="138.928" style="stroke: #000000; stroke-width: 0.8"/>
      </g>
     </g>
     <g id="text_7">
      <text style="font-size: 7px; font-family: 'DejaVu Sans'; text-anchor: end" x="30.074688" y="141.587453" transform="rotate(-0 30.074688 141.587453)">0.5</text>
     </g>
    </g>
    <g id="ytick_4">
     <g id="line2d_11">
      <path d="M 37.074688 116.272 
L 235.419035 116.272 
" clip-path="url(#p3a6199fd8d)" style="fill: none; stroke: #d6d9dc; stroke-width: 0.6; stroke-linecap: square"/>
     </g>
     <g id="line2d_12">
      <g>
       <use xlink:href="#m6e5ea748ec" x="37.074688" y="116.272" style="stroke: #000000; stroke-width: 0.8"/>
      </g>
     </g>
     <g id="text_8">
      <text style="font-size: 7px; font-family: 'DejaVu Sans'; text-anchor: end" x="30.074688" y="118.931453" transform="rotate(-0 30.074688 118.931453)">0.6</text>
     </g>
    </g>
    <g id="ytick_5">
     <g id="line2d_13">
      <path d="M 37.074688 93.616 
L 235.419035 93.616 
" clip-path="url(#p3a6199fd8d)" style="fill: none; stroke: #d6d9dc; stroke-width: 0.6; stroke-linecap: square"/>
     </g>
     <g id="line2d_14">
      <g>
       <use xlink:href="#m6e5ea748ec" x="37.074688" y="93.616" style="stroke: #000000; stroke-width: 0.8"/>
      </g>
     </g>
     <g id="text_9">
      <text style="font-size: 7px; font-family: 'DejaVu Sans'; text-anchor: end" x="30.074688" y="96.275453" transform="rotate(-0 30.074688 96.275453)">0.7</text>
     </g>
    </g>
    <g id="ytick_6">
     <g id="line2d_15">
      <path d="M 37.074688 70.96 
L 235.419035 70.96 
" clip-path="url(#p3a6199fd8d)" style="fill: none; stroke: #d6d9dc; stroke-width: 0.6; stroke-linecap: square"/>
     </g>
     <g id="line2d_16">
      <g>
       <use xlink:href="#m6e5ea748ec" x="37.074688" y="70.96" style="stroke: #000000; stroke-width: 0.8"/>
      </g>
     </g>
     <g id="text_10">
      <text style="font-size: 7px; font-family: 'DejaVu Sans'; text-anchor: end" x="30.074688" y="73.619453" transform="rotate(-0 30.074688 73.619453)">0.8</text>
     </g>
    </g>
    <g id="ytick_7">
     <g id="line2d_17">
      <path d="M 37.074688 48.304 
L 235.419035 48.304 
" clip-path="url(#p3a6199fd8d)" style="fill: none; stroke: #d6d9dc; stroke-width: 0.6; stroke-linecap: square"/>
     </g>
     <g id="line2d_18">
      <g>
       <use xlink:href="#m6e5ea748ec" x="37.074688" y="48.304" style="stroke: #000000; stroke-width: 0.8"/>
      </g>
     </g>
     <g id="text_11">
      <text style="font-size: 7px; font-family: 'DejaVu Sans'; text-anchor: end" x="30.074688" y="50.963453" transform="rotate(-0 30.074688 50.963453)">0.9</text>
     </g>
    </g>
    <g id="text_12">
     <text style="font-size: 8px; font-family: 'DejaVu Sans'; text-anchor: middle" x="13.27875" y="116.272" transform="rotate(-90 13.27875 116.272)">F1-cost area</text>
    </g>
   </g>
   <g id="patch_19">
    <path d="M 37.074688 184.24 
L 37.074688 48.304 
" style="fill: none; stroke: #000000; stroke-width: 0.7; stroke-linejoin: miter; stroke-linecap: square"/>
   </g>
   <g id="patch_20">
    <path d="M 37.074688 184.24 
L 235.419035 184.24 
" style="fill: none; stroke: #000000; stroke-width: 0.7; stroke-linejoin: miter; stroke-linecap: square"/>
   </g>
   <g id="text_13">
    <text style="font-weight: 600; font-size: 9px; font-family: 'DejaVu Sans'; text-anchor: start" x="37.074688" y="42.304" transform="rotate(-0 37.074688 42.304)">a  Quality over verification cost</text>
   </g>
  </g>
  <g id="axes_2">
   <g id="patch_21">
    <path d="M 294.92234 184.24 
L 493.266687 184.24 
L 493.266687 48.304 
L 294.92234 48.304 
z
" style="fill: #ffffff"/>
   </g>
   <g id="matplotlib.axis_3">
    <g id="xtick_5">
     <g id="line2d_19">
      <g>
       <use xlink:href="#m146113379a" x="317.690682" y="184.24" style="stroke: #000000; stroke-width: 0.8"/>
      </g>
     </g>
     <g id="text_14">
      <text style="font-size: 7px; font-family: 'DejaVu Sans'; text-anchor: middle" x="317.690682" y="196.558906" transform="rotate(-0 317.690682 196.558906)">Flights</text>
     </g>
    </g>
    <g id="xtick_6">
     <g id="line2d_20">
      <g>
       <use xlink:href="#m146113379a" x="368.62657" y="184.24" style="stroke: #000000; stroke-width: 0.8"/>
      </g>
     </g>
     <g id="text_15">
      <text style="font-size: 7px; font-family: 'DejaVu Sans'; text-anchor: middle" x="368.62657" y="196.558906" transform="rotate(-0 368.62657 196.558906)">Assets</text>
     </g>
    </g>
    <g id="xtick_7">
     <g id="line2d_21">
      <g>
       <use xlink:href="#m146113379a" x="419.562458" y="184.24" style="stroke: #000000; stroke-width: 0.8"/>
      </g>
     </g>
     <g id="text_16">
      <text style="font-size: 7px; font-family: 'DejaVu Sans'; text-anchor: middle" x="419.562458" y="196.558906" transform="rotate(-0 419.562458 196.558906)">Hospital</text>
     </g>
    </g>
    <g id="xtick_8">
     <g id="line2d_22">
      <g>
       <use xlink:href="#m146113379a" x="470.498346" y="184.24" style="stroke: #000000; stroke-width: 0.8"/>
      </g>
     </g>
     <g id="text_17">
      <text style="font-size: 7px; font-family: 'DejaVu Sans'; text-anchor: middle" x="470.498346" y="196.558906" transform="rotate(-0 470.498346 196.558906)">Beers</text>
     </g>
    </g>
   </g>
   <g id="matplotlib.axis_4">
    <g id="ytick_8">
     <g id="line2d_23">
      <path d="M 294.92234 179.299349 
L 493.266687 179.299349 
" clip-path="url(#p67471f931e)" style="fill: none; stroke: #d6d9dc; stroke-width: 0.6; stroke-linecap: square"/>
     </g>
     <g id="line2d_24">
      <g>
       <use xlink:href="#m6e5ea748ec" x="294.92234" y="179.299349" style="stroke: #000000; stroke-width: 0.8"/>
      </g>
     </g>
     <g id="text_18">
      <text style="font-size: 7px; font-family: 'DejaVu Sans'; text-anchor: end" x="287.92234" y="181.958802" transform="rotate(-0 287.92234 181.958802)">2.2</text>
     </g>
    </g>
    <g id="ytick_9">
     <g id="line2d_25">
      <path d="M 294.92234 159.487216 
L 493.266687 159.487216 
" clip-path="url(#p67471f931e)" style="fill: none; stroke: #d6d9dc; stroke-width: 0.6; stroke-linecap: square"/>
     </g>
     <g id="line2d_26">
      <g>
       <use xlink:href="#m6e5ea748ec" x="294.92234" y="159.487216" style="stroke: #000000; stroke-width: 0.8"/>
      </g>
     </g>
     <g id="text_19">
      <text style="font-size: 7px; font-family: 'DejaVu Sans'; text-anchor: end" x="287.92234" y="162.146669" transform="rotate(-0 287.92234 162.146669)">2.4</text>
     </g>
    </g>
    <g id="ytick_10">
     <g id="line2d_27">
      <path d="M 294.92234 139.675083 
L 493.266687 139.675083 
" clip-path="url(#p67471f931e)" style="fill: none; stroke: #d6d9dc; stroke-width: 0.6; stroke-linecap: square"/>
     </g>
     <g id="line2d_28">
      <g>
       <use xlink:href="#m6e5ea748ec" x="294.92234" y="139.675083" style="stroke: #000000; stroke-width: 0.8"/>
      </g>
     </g>
     <g id="text_20">
      <text style="font-size: 7px; font-family: 'DejaVu Sans'; text-anchor: end" x="287.92234" y="142.334536" transform="rotate(-0 287.92234 142.334536)">2.6</text>
     </g>
    </g>
    <g id="ytick_11">
     <g id="line2d_29">
      <path d="M 294.92234 119.862949 
L 493.266687 119.862949 
" clip-path="url(#p67471f931e)" style="fill: none; stroke: #d6d9dc; stroke-width: 0.6; stroke-linecap: square"/>
     </g>
     <g id="line2d_30">
      <g>
       <use xlink:href="#m6e5ea748ec" x="294.92234" y="119.862949" style="stroke: #000000; stroke-width: 0.8"/>
      </g>
     </g>
     <g id="text_21">
      <text style="font-size: 7px; font-family: 'DejaVu Sans'; text-anchor: end" x="287.92234" y="122.522402" transform="rotate(-0 287.92234 122.522402)">2.8</text>
     </g>
    </g>
    <g id="ytick_12">
     <g id="line2d_31">
      <path d="M 294.92234 100.050816 
L 493.266687 100.050816 
" clip-path="url(#p67471f931e)" style="fill: none; stroke: #d6d9dc; stroke-width: 0.6; stroke-linecap: square"/>
     </g>
     <g id="line2d_32">
      <g>
       <use xlink:href="#m6e5ea748ec" x="294.92234" y="100.050816" style="stroke: #000000; stroke-width: 0.8"/>
      </g>
     </g>
     <g id="text_22">
      <text style="font-size: 7px; font-family: 'DejaVu Sans'; text-anchor: end" x="287.92234" y="102.710269" transform="rotate(-0 287.92234 102.710269)">3.0</text>
     </g>
    </g>
    <g id="ytick_13">
     <g id="line2d_33">
      <path d="M 294.92234 80.238682 
L 493.266687 80.238682 
" clip-path="url(#p67471f931e)" style="fill: none; stroke: #d6d9dc; stroke-width: 0.6; stroke-linecap: square"/>
     </g>
     <g id="line2d_34">
      <g>
       <use xlink:href="#m6e5ea748ec" x="294.92234" y="80.238682" style="stroke: #000000; stroke-width: 0.8"/>
      </g>
     </g>
     <g id="text_23">
      <text style="font-size: 7px; font-family: 'DejaVu Sans'; text-anchor: end" x="287.92234" y="82.898136" transform="rotate(-0 287.92234 82.898136)">3.2</text>
     </g>
    </g>
    <g id="ytick_14">
     <g id="line2d_35">
      <path d="M 294.92234 60.426549 
L 493.266687 60.426549 
" clip-path="url(#p67471f931e)" style="fill: none; stroke: #d6d9dc; stroke-width: 0.6; stroke-linecap: square"/>
     </g>
     <g id="line2d_36">
      <g>
       <use xlink:href="#m6e5ea748ec" x="294.92234" y="60.426549" style="stroke: #000000; stroke-width: 0.8"/>
      </g>
     </g>
     <g id="text_24">
      <text style="font-size: 7px; font-family: 'DejaVu Sans'; text-anchor: end" x="287.92234" y="63.086002" transform="rotate(-0 287.92234 63.086002)">3.4</text>
     </g>
    </g>
    <g id="text_25">
     <text style="font-size: 8px; font-family: 'DejaVu Sans'; text-anchor: middle" x="271.126402" y="116.272" transform="rotate(-90 271.126402 116.272)">Mean reference-path cost</text>
    </g>
   </g>
   <g id="patch_22">
    <path d="M 294.92234 184.24 
L 294.92234 48.304 
" style="fill: none; stroke: #000000; stroke-width: 0.7; stroke-linejoin: miter; stroke-linecap: square"/>
   </g>
   <g id="patch_23">
    <path d="M 294.92234 184.24 
L 493.266687 184.24 
" style="fill: none; stroke: #000000; stroke-width: 0.7; stroke-linejoin: miter; stroke-linecap: square"/>
   </g>
   <g id="PathCollection_1">
    <defs>
     <path id="m517a097ca9" d="M 0 2.645751 
C 0.701661 2.645751 1.374679 2.366978 1.870829 1.870829 
C 2.366978 1.374679 2.645751 0.701661 2.645751 0 
C 2.645751 -0.701661 2.366978 -1.374679 1.870829 -1.870829 
C 1.374679 -2.366978 0.701661 -2.645751 0 -2.645751 
C -0.701661 -2.645751 -1.374679 -2.366978 -1.870829 -1.870829 
C -2.366978 -1.374679 -2.645751 -0.701661 -2.645751 0 
C -2.645751 0.701661 -2.366978 1.374679 -1.870829 1.870829 
C -1.374679 2.366978 -0.701661 2.645751 0 2.645751 
z
" style="stroke: #557a95"/>
    </defs>
    <g clip-path="url(#p67471f931e)">
     <use xlink:href="#m517a097ca9" x="303.937992" y="178.061091" style="fill: #557a95; stroke: #557a95"/>
     <use xlink:href="#m517a097ca9" x="354.87388" y="140.187465" style="fill: #557a95; stroke: #557a95"/>
     <use xlink:href="#m517a097ca9" x="405.809768" y="83.829632" style="fill: #557a95; stroke: #557a95"/>
     <use xlink:href="#m517a097ca9" x="456.745656" y="117.601337" style="fill: #557a95; stroke: #557a95"/>
    </g>
   </g>
   <g id="PathCollection_2">
    <defs>
     <path id="m8b841fae50" d="M -2.645751 2.645751 
L 2.645751 2.645751 
L 2.645751 -2.645751 
L -2.645751 -2.645751 
z
" style="stroke: #6e8b74"/>
    </defs>
    <g clip-path="url(#p67471f931e)">
     <use xlink:href="#m8b841fae50" x="313.106452" y="171.869799" style="fill: #6e8b74; stroke: #6e8b74"/>
     <use xlink:href="#m8b841fae50" x="364.04234" y="136.942374" style="fill: #6e8b74; stroke: #6e8b74"/>
     <use xlink:href="#m8b841fae50" x="414.978228" y="54.482909" style="fill: #6e8b74; stroke: #6e8b74"/>
     <use xlink:href="#m8b841fae50" x="465.914116" y="117.601337" style="fill: #6e8b74; stroke: #6e8b74"/>
    </g>
   </g>
   <g id="PathCollection_3">
    <defs>
     <path id="m3ff6342d99" d="M 0 -2.645751 
L -2.645751 2.645751 
L 2.645751 2.645751 
z
" style="stroke: #6b7280"/>
    </defs>
    <g clip-path="url(#p67471f931e)">
     <use xlink:href="#m3ff6342d99" x="322.274912" y="161.963733" style="fill: #6b7280; stroke: #6b7280"/>
     <use xlink:href="#m3ff6342d99" x="373.2108" y="141.810011" style="fill: #6b7280; stroke: #6b7280"/>
     <use xlink:href="#m3ff6342d99" x="424.146687" y="62.283937" style="fill: #6b7280; stroke: #6b7280"/>
     <use xlink:href="#m3ff6342d99" x="475.082575" y="102.251027" style="fill: #6b7280; stroke: #6b7280"/>
    </g>
   </g>
   <g id="PathCollection_4">
    <defs>
     <path id="m662bfbac05" d="M 0 3.741657 
L 3.741657 0 
L 0 -3.741657 
L -3.741657 0 
z
" style="stroke: #c17c54"/>
    </defs>
    <g clip-path="url(#p67471f931e)">
     <use xlink:href="#m662bfbac05" x="331.443371" y="168.155024" style="fill: #c17c54; stroke: #c17c54"/>
     <use xlink:href="#m662bfbac05" x="382.379259" y="141.810011" style="fill: #c17c54; stroke: #c17c54"/>
     <use xlink:href="#m662bfbac05" x="433.315147" y="62.655414" style="fill: #c17c54; stroke: #c17c54"/>
     <use xlink:href="#m662bfbac05" x="484.251035" y="120.057386" style="fill: #c17c54; stroke: #c17c54"/>
    </g>
   </g>
   <g id="text_26">
    <text style="font-weight: 600; font-size: 9px; font-family: 'DejaVu Sans'; text-anchor: start" x="294.92234" y="42.304" transform="rotate(-0 294.92234 42.304)">b  Cost on reference feedback</text>
   </g>
  </g>
  <g id="legend_1">
   <g id="patch_24">
    <path d="M 156.727219 15.318906 
L 170.727219 15.318906 
L 170.727219 10.418906 
L 156.727219 10.418906 
z
" style="fill: #557a95"/>
   </g>
   <g id="text_27">
    <text style="font-size: 7px; font-family: 'DejaVu Sans'; text-anchor: start" x="176.327219" y="15.318906" transform="rotate(-0 176.327219 15.318906)">EC²</text>
   </g>
   <g id="patch_25">
    <path d="M 202.444875 15.318906 
L 216.444875 15.318906 
L 216.444875 10.418906 
L 202.444875 10.418906 
z
" style="fill: #6e8b74"/>
   </g>
   <g id="text_28">
    <text style="font-size: 7px; font-family: 'DejaVu Sans'; text-anchor: start" x="222.044875" y="15.318906" transform="rotate(-0 222.044875 15.318906)">Pairs</text>
   </g>
   <g id="patch_26">
    <path d="M 252.70925 15.318906 
L 266.70925 15.318906 
L 266.70925 10.418906 
L 252.70925 10.418906 
z
" style="fill: #6b7280"/>
   </g>
   <g id="text_29">
    <text style="font-size: 7px; font-family: 'DejaVu Sans'; text-anchor: start" x="272.30925" y="15.318906" transform="rotate(-0 272.30925 15.318906)">RQDP</text>
   </g>
   <g id="patch_27">
    <path d="M 306.29425 15.318906 
L 320.29425 15.318906 
L 320.29425 10.418906 
L 306.29425 10.418906 
z
" style="fill: #c17c54"/>
   </g>
   <g id="text_30">
    <text style="font-size: 7px; font-family: 'DejaVu Sans'; text-anchor: start" x="325.89425" y="15.318906" transform="rotate(-0 325.89425 15.318906)">RQDP-A</text>
   </g>
  </g>
 </g>
 <defs>
  <clipPath id="p3a6199fd8d">
   <rect x="37.074688" y="48.304" width="198.344348" height="135.936"/>
  </clipPath>
  <clipPath id="p67471f931e">
   <rect x="294.92234" y="48.304" width="198.344348" height="135.936"/>
  </clipPath>
 </defs>
</svg>
